<svg xmlns="http://www.w3.org/2000/svg" width="24" height="18" viewBox="0 0 24 18">
<g>
<g>
<path fill="#b99403" d="M23.736 17.3L15.46 9.023l6.125-6.125 2.17-2.17c.142.229.245.483.245.772v15c0 .3-.111.565-.264.8zM21.055 2.368L18.26 5.162l-5.346 5.346-.938.938-9.032-9.031-1.5-1.5-.689-.69C.98.096 1.223 0 1.5 0h21c.264 0 .5.087.716.207l-.755.755zM8.47 9L.226 17.244A1.459 1.459 0 0 1 0 16.5v-15C0 1.223.095.978.226.756l.689.69zm.53.53l.317.317.113.113 1.03 1.031 1.5 1.5.063-.062.016.015 1.406-1.406 1.485-1.484 8.258 8.258c-.209.11-.436.188-.688.188h-21a1.46 1.46 0 0 1-.744-.226z"/>
</g>
</g>
</svg>