<svg xmlns="http://www.w3.org/2000/svg" width="109" height="74" viewBox="0 0 109 74">
<g>
<g>
<path fill="#f5c506" d="M81.75 74H23.844C10.675 74 0 63.458 0 50.454c0-10.68 7.247-19.596 17.117-22.478-.018-.36-.086-.701-.086-1.067 0-9.289 7.625-16.818 17.031-16.818 1.884 0 3.664.374 5.357.931C44.38 4.37 52.304 0 61.312 0c12.954 0 23.746 8.946 26.515 20.908C99.941 23.643 109 34.3 109 47.09 109 61.952 96.8 74 81.75 74zM61.312 47.09V26.91H47.687v20.182H37.256L54.5 64.119l17.244-17.028z"/>
</g>
</g>
</svg>